<svg version="1.1" viewBox="0.0 0.0 330.1391076115486 285.748031496063" fill="none" stroke="none" stroke-linecap="square" stroke-miterlimit="10" xmlns:xlink="http://www.w3.org/1999/xlink" xmlns="http://www.w3.org/2000/svg"><clipPath id="p.0"><path d="m0 0l330.1391 0l0 285.74802l-330.1391 0l0 -285.74802z" clip-rule="nonzero"/></clipPath><g clip-path="url(#p.0)"><path fill="#000000" fill-opacity="0.0" d="m0 0l330.1391 0l0 285.74802l-330.1391 0z" fill-rule="evenodd"/><path fill="#000000" fill-opacity="0.0" d="m283.26773 178.29921l-149.7323 1.8897705" fill-rule="evenodd"/><path stroke="#999999" stroke-width="2.0" stroke-linejoin="round" stroke-linecap="butt" d="m283.26773 178.29921l-149.7323 1.8897705" fill-rule="evenodd"/><path fill="#000000" fill-opacity="0.0" d="m133.14436 27.24147l0.56692505 153.88977" fill-rule="evenodd"/><path stroke="#999999" stroke-width="2.0" stroke-linejoin="round" stroke-linecap="butt" d="m133.14436 27.24147l0.56692505 153.88977" fill-rule="evenodd"/><path fill="#000000" fill-opacity="0.0" d="m116.17279 168.58325l0 0c5.0878525 -8.022232 15.158295 -11.453674 24.177948 -8.23848c9.019638 3.2151794 14.543411 12.205429 13.261917 21.584488c-1.2814789 9.379074 -9.0208435 16.604462 -18.581284 17.34732c-9.56044 0.7428589 -18.350296 -5.1981964 -21.103394 -14.263779l19.505096 -5.7687073z" fill-rule="evenodd"/><path fill="#000000" fill-opacity="0.0" d="m116.17279 168.58325l0 0c5.0878525 -8.022232 15.158295 -11.453674 24.177948 -8.23848c9.019638 3.2151794 14.543411 12.205429 13.261917 21.584488c-1.2814789 9.379074 -9.0208435 16.604462 -18.581284 17.34732c-9.56044 0.7428589 -18.350296 -5.1981964 -21.103394 -14.263779" fill-rule="evenodd"/><path stroke="#000000" stroke-width="2.0" stroke-linejoin="round" stroke-linecap="butt" d="m122.56622 162.2489l0.011146545 -0.007080078c0.12043762 -0.0748291 0.24160767 -0.14834595 0.3634796 -0.22058105c0.24376678 -0.14447021 0.49037933 -0.28378296 0.7396393 -0.41784668c0.9970474 -0.5362549 2.0365906 -0.98872375 3.1068497 -1.3534088c4.2810516 -1.4587555 9.053574 -1.5128174 13.5634 0.0947876c9.019638 3.2151794 14.543411 12.205429 13.261917 21.584488c-1.2814789 9.379074 -9.0208435 16.604477 -18.581284 17.34732c-9.56044 0.7428589 -18.350304 -5.1982117 -21.103394 -14.263763" fill-rule="evenodd"/><path fill="#000000" stroke="#000000" stroke-width="2.0" stroke-linecap="butt" d="m121.00969 160.67786l-2.7598877 5.8475647l5.8729477 -2.7054749z" fill-rule="evenodd"/><path fill="#000000" fill-opacity="0.0" d="m83.04724 228.61942l50.740158 -48.6929" fill-rule="evenodd"/><path stroke="#00ff00" stroke-width="4.0" stroke-linejoin="round" stroke-linecap="butt" d="m83.04724 228.61942l33.42386 -32.07527" fill-rule="evenodd"/><path fill="#00ff00" stroke="#00ff00" stroke-width="4.0" stroke-linecap="butt" d="m121.045746 201.31113l8.522537 -17.335724l-17.67183 7.801758z" fill-rule="evenodd"/><path fill="#000000" fill-opacity="0.0" d="m82.71129 229.26509l150.04724 -0.9133911" fill-rule="evenodd"/><path stroke="#ff0000" stroke-width="4.0" stroke-linejoin="round" stroke-linecap="butt" d="m82.71129 229.26509l126.0477 -0.7672882" fill-rule="evenodd"/><path fill="#ff0000" stroke="#ff0000" stroke-width="4.0" stroke-linecap="butt" d="m208.7992 235.1046l18.111832 -6.7173004l-18.19226 -6.4963074z" fill-rule="evenodd"/><path fill="#000000" fill-opacity="0.0" d="m82.91863 228.66983l0.724411 -151.74802" fill-rule="evenodd"/><path stroke="#4a86e8" stroke-width="4.0" stroke-linejoin="round" stroke-linecap="butt" d="m82.91863 228.66985l0.6098404 -127.74831" fill-rule="evenodd"/><path fill="#4a86e8" stroke="#4a86e8" stroke-width="4.0" stroke-linecap="butt" d="m90.13533 100.95307l-6.5202026 -18.183723l-6.6935043 18.120644z" fill-rule="evenodd"/><path fill="#000000" fill-opacity="0.0" d="m235.68217 228.24934l149.73228 0l0 58.173233l-149.73228 0z" fill-rule="evenodd"/><path fill="#000000" d="m253.30717 258.7037l-1.125 5.3125q-0.25 1.125 -0.265625 1.640625q-0.015625 0.5 0.09375 0.765625q0.125 0.25 0.375 0.421875q0.265625 0.15625 0.9375 0.359375l-0.15625 0.765625l-6.59375 0l0.15625 -0.765625q1.03125 -0.25 1.421875 -0.546875q0.390625 -0.3125 0.609375 -0.875q0.21875 -0.5625 0.46875 -1.71875l2.875 -13.51561q0.234375 -1.078125 0.25 -1.5625q0.03125 -0.5 -0.09375 -0.765625q-0.125 -0.28125 -0.390625 -0.4375q-0.25 -0.171875 -0.921875 -0.375l0.15625 -0.765625l7.7343597 0q3.65625 0 5.1875 1.328125q1.53125 1.328125 0.9375 4.125q-0.453125 2.140625 -1.953125 3.640625q-1.5 1.4999847 -4.03125 2.3437347l-0.03125 0.125q0.875 0.390625 1.390625 1.125q0.53125 0.71875 1.03125 2.25l0.859375 2.5625q0.375 1.125 0.6875 1.71875q0.3125 0.59375 0.6875 0.90625q0.390625 0.3125 1.109375 0.4375l-0.15625 0.765625l-4.328125 0q-0.421875 -0.828125 -0.75 -1.78125q-0.328125 -0.953125 -0.625 -1.9375l-0.828125 -2.609375q-0.375 -1.1875 -0.65625 -1.75q-0.265625 -0.5625 -0.5625 -0.78125q-0.28125 -0.234375 -0.65625 -0.3125q-0.35935974 -0.09375 -1.1249847 -0.09375l-1.71875 0zm2.265625 -10.624985l-1.984375 9.281235l1.765625 0q1.3593597 0 2.2499847 -0.1875q0.890625 -0.203125 1.71875 -0.75q0.84375 -0.54685974 1.46875 -1.5156097q0.640625 -0.984375 0.9375 -2.40625q0.328125 -1.484375 0.015625 -2.46875q-0.296875 -0.984375 -1.21875 -1.5q-0.921875 -0.515625 -2.671875 -0.515625q-1.40625 0 -2.2812347 0.0625z" fill-rule="nonzero"/><path fill="#000000" d="m271.26028 273.9537l1.703125 -1.71875q0.28125 -0.28125 0.46875 -0.546875q0.203125 -0.265625 0.265625 -0.546875q0.046875 -0.234375 -0.09375 -0.390625q-0.140625 -0.15625 -0.5 -0.234375l0.09375 -0.5l3.40625 0l-0.09375 0.5q-0.421875 0.125 -0.90625 0.453125q-0.484375 0.328125 -1.234375 1.078125l-2.71875 2.640625l1.6875 3.203125q0.375 0.6875 0.703125 1.046875q0.328125 0.359375 0.703125 0.515625l-0.109375 0.515625l-4.1875 0l0.109375 -0.515625q0.875 -0.09375 1.0 -0.640625q0.046875 -0.21875 0.015625 -0.40625q-0.03125 -0.203125 -0.171875 -0.46875l-1.078125 -2.109375l-2.03125 2.09375q-0.234375 0.21875 -0.375 0.421875q-0.125 0.1875 -0.1875 0.421875q-0.046875 0.28125 0.09375 0.46875q0.140625 0.1875 0.5625 0.21875l-0.109375 0.515625l-3.484375 0l0.109375 -0.515625q0.375 -0.125 0.6875 -0.3125q0.328125 -0.1875 0.671875 -0.484375q0.34375 -0.296875 0.9375 -0.859375l2.734375 -2.6875l-1.5625 -3.046875q-0.328125 -0.625 -0.546875 -0.90625q-0.203125 -0.28125 -0.40625 -0.421875q-0.1875 -0.15625 -0.40625 -0.21875l0.09375 -0.5l4.078125 0l-0.09375 0.5q-0.84375 0.125 -0.953125 0.65625q-0.0625 0.234375 0 0.484375q0.0625 0.234375 0.21875 0.515625l0.90625 1.78125z" fill-rule="nonzero"/><path fill="#000000" d="m282.07028 260.06308q-1.171875 5.46875 -0.171875 9.015625q1.015625 3.546875 4.359375 4.75l-0.625 1.203125q-4.328125 -1.203125 -5.921875 -5.1875q-1.59375 -3.96875 -0.390625 -9.625q1.203125 -5.6406097 4.5 -9.624985q3.296875 -4.0 8.109375 -5.203125l0.171875 1.203125q-3.921875 1.203125 -6.421875 4.703125q-2.5 3.484375 -3.609375 8.76561zm14.578125 8.15625q-3.4375 0 -4.46875 -2.671875q-1.015625 -2.6875 0.140625 -8.1875q1.171875 -5.5156097 3.53125 -8.406235q2.375 -2.890625 5.75 -2.890625q3.421875 0 4.515625 2.640625q1.09375 2.640625 -0.078125 8.156235q-1.203125 5.6875 -3.5625 8.53125q-2.34375 2.828125 -5.828125 2.828125zm-1.21875 -11.953125l7.84375 0q1.6875 -8.968735 -2.0 -8.968735q-3.8125 0 -5.84375 8.968735zm7.53125 1.59375l-7.859375 0q-1.765625 9.109375 2.046875 9.109375q3.8125 0 5.8125 -9.109375zm7.40625 -12.093735l0 0zm4.734375 14.29686q1.109375 -5.2812347 0.09375 -8.76561q-1.0 -3.5 -4.40625 -4.703125l0.671875 -1.203125q4.3125 1.203125 5.90625 5.203125q1.59375 3.984375 0.390625 9.624985q-1.203125 5.65625 -4.484375 9.625q-3.28125 3.984375 -8.109375 5.1875l-0.125 -1.203125q3.875 -1.203125 6.375 -4.75q2.515625 -3.546875 3.6875 -9.015625z" fill-rule="nonzero"/><path fill="#000000" fill-opacity="0.0" d="m133.14418 112.45407l143.14961 0l0 58.173233l-143.14961 0z" fill-rule="evenodd"/><path fill="#000000" d="m150.76918 142.90845l-1.125 5.3125q-0.25 1.125 -0.265625 1.640625q-0.015625 0.5 0.09375 0.765625q0.125 0.25 0.375 0.421875q0.265625 0.15625 0.9375 0.359375l-0.15625 0.765625l-6.59375 0l0.15625 -0.765625q1.03125 -0.25 1.421875 -0.546875q0.390625 -0.3125 0.609375 -0.875q0.21875 -0.5625 0.46875 -1.71875l2.875 -13.515625q0.234375 -1.078125 0.25 -1.5625q0.03125 -0.5 -0.09375 -0.765625q-0.125 -0.28125 -0.390625 -0.4375q-0.25 -0.171875 -0.921875 -0.375l0.15625 -0.765625l7.734375 0q3.65625 0 5.1875 1.328125q1.53125 1.328125 0.9375 4.125q-0.453125 2.140625 -1.953125 3.640625q-1.5 1.5 -4.03125 2.34375l-0.03125 0.125q0.875 0.390625 1.390625 1.125q0.53125 0.71875 1.03125 2.25l0.859375 2.5625q0.375 1.125 0.6875 1.71875q0.3125 0.59375 0.6875 0.90625q0.390625 0.3125 1.109375 0.4375l-0.15625 0.765625l-4.328125 0q-0.421875 -0.828125 -0.75 -1.78125q-0.328125 -0.953125 -0.625 -1.9375l-0.828125 -2.609375q-0.375 -1.1875 -0.65625 -1.75q-0.265625 -0.5625 -0.5625 -0.78125q-0.28125 -0.234375 -0.65625 -0.3125q-0.359375 -0.09375 -1.125 -0.09375l-1.71875 0zm2.265625 -10.625l-1.984375 9.28125l1.765625 0q1.359375 0 2.25 -0.1875q0.890625 -0.203125 1.71875 -0.75q0.84375 -0.546875 1.46875 -1.515625q0.640625 -0.984375 0.9375 -2.40625q0.328125 -1.484375 0.015625 -2.46875q-0.296875 -0.984375 -1.21875 -1.5q-0.921875 -0.515625 -2.671875 -0.515625q-1.40625 0 -2.28125 0.0625z" fill-rule="nonzero"/><path fill="#000000" d="m167.25356 165.03345q-0.84375 1.28125 -1.5625 2.078125q-0.703125 0.8125 -1.453125 1.21875q-0.734375 0.40625 -1.625 0.40625q-0.578125 0 -1.265625 -0.140625l0.4375 -2.0625l0.9375 0q0.03125 0.4375 0.171875 0.59375q0.15625 0.171875 0.5 0.171875q0.3125 0 0.59375 -0.125q0.28125 -0.109375 0.609375 -0.40625q0.328125 -0.296875 0.8125 -0.90625q0.484375 -0.59375 1.125 -1.515625l-1.25 -7.84375q-0.109375 -0.765625 -0.21875 -1.0625q-0.109375 -0.3125 -0.28125 -0.46875q-0.171875 -0.15625 -0.546875 -0.25l0.09375 -0.5l4.25 0l-0.09375 0.5q-0.53125 0.125 -0.75 0.234375q-0.21875 0.109375 -0.359375 0.28125q-0.125 0.171875 -0.171875 0.4375q-0.0625 0.28125 -0.0625 0.59375q0.015625 0.296875 0.0625 0.703125l0.75 5.21875l3.140625 -5.0q0.265625 -0.421875 0.4375 -0.765625q0.171875 -0.359375 0.234375 -0.65625q0.109375 -0.453125 -0.09375 -0.671875q-0.1875 -0.234375 -0.765625 -0.375l0.09375 -0.5l3.890625 0l-0.09375 0.5q-0.4375 0.09375 -0.6875 0.265625q-0.25 0.171875 -0.546875 0.546875q-0.296875 0.359375 -0.734375 1.03125l-5.578125 8.46875z" fill-rule="nonzero"/><path fill="#000000" d="m179.96968 144.26782q-1.171875 5.46875 -0.171875 9.015625q1.015625 3.546875 4.359375 4.75l-0.625 1.203125q-4.328125 -1.203125 -5.921875 -5.1875q-1.59375 -3.96875 -0.390625 -9.625q1.203125 -5.640625 4.5 -9.625q3.296875 -4.0 8.109375 -5.203125l0.171875 1.203125q-3.921875 1.203125 -6.421875 4.703125q-2.5 3.484375 -3.609375 8.765625zm14.578125 8.15625q-3.4375 0 -4.46875 -2.671875q-1.015625 -2.6875 0.140625 -8.1875q1.171875 -5.515625 3.53125 -8.40625q2.375 -2.890625 5.75 -2.890625q3.421875 0 4.515625 2.640625q1.09375 2.640625 -0.078125 8.15625q-1.203125 5.6875 -3.5625 8.53125q-2.34375 2.828125 -5.828125 2.828125zm-1.21875 -11.953125l7.84375 0q1.6875 -8.96875 -2.0 -8.96875q-3.8125 0 -5.84375 8.96875zm7.53125 1.59375l-7.859375 0q-1.765625 9.109375 2.046875 9.109375q3.8125 0 5.8125 -9.109375zm7.40625 -12.09375l0 0zm4.734375 14.296875q1.109375 -5.28125 0.09375 -8.765625q-1.0 -3.5 -4.40625 -4.703125l0.671875 -1.203125q4.3125 1.203125 5.90625 5.203125q1.59375 3.984375 0.390625 9.625q-1.203125 5.65625 -4.484375 9.625q-3.28125 3.984375 -8.109375 5.1875l-0.125 -1.203125q3.875 -1.203125 6.375 -4.75q2.515625 -3.546875 3.6875 -9.015625z" fill-rule="nonzero"/><path fill="#000000" fill-opacity="0.0" d="m-2.6272965E-4 -8.984252E-4l153.79527 0l0 58.17323l-153.79527 0z" fill-rule="evenodd"/><path fill="#000000" d="m17.624737 30.453478l-1.125 5.312498q-0.25 1.125 -0.265625 1.640625q-0.015625 0.5 0.09375 0.765625q0.125 0.25 0.375 0.421875q0.265625 0.15625 0.9375 0.359375l-0.15625 0.765625l-6.593749 0l0.15625 -0.765625q1.03125 -0.25 1.421875 -0.546875q0.390625 -0.3125 0.609375 -0.875q0.21875 -0.5625 0.46875 -1.71875l2.874999 -13.515623q0.234375 -1.078125 0.25 -1.5625q0.03125 -0.5 -0.09375 -0.765625q-0.125 -0.28125 -0.390625 -0.4375q-0.24999905 -0.171875 -0.92187405 -0.375l0.15625 -0.765625l7.734374 0q3.65625 0 5.1875 1.328125q1.53125 1.328125 0.9375 4.125q-0.453125 2.140625 -1.953125 3.640625q-1.5 1.5 -4.03125 2.34375l-0.03125 0.125q0.875 0.390625 1.390625 1.125q0.53125 0.71875 1.03125 2.249998l0.859375 2.5625q0.375 1.125 0.6875 1.71875q0.3125 0.59375 0.6875 0.90625q0.390625 0.3125 1.109375 0.4375l-0.15625 0.765625l-4.328125 0q-0.421875 -0.828125 -0.75 -1.78125q-0.328125 -0.953125 -0.625 -1.9375l-0.828125 -2.609375q-0.375 -1.1875 -0.65625 -1.7499981q-0.265625 -0.5625 -0.5625 -0.78125q-0.28125 -0.234375 -0.65625 -0.3125q-0.359375 -0.09375 -1.125 -0.09375l-1.71875 0zm2.265625 -10.625l-1.984375 9.28125l1.765625 0q1.359375 0 2.25 -0.1875q0.890625 -0.203125 1.71875 -0.75q0.84375 -0.546875 1.46875 -1.515625q0.640625 -0.984375 0.9375 -2.40625q0.328125 -1.484375 0.015625 -2.46875q-0.296875 -0.984375 -1.21875 -1.5q-0.921875 -0.515625 -2.671875 -0.515625q-1.40625 0 -2.28125 0.0625z" fill-rule="nonzero"/><path fill="#000000" d="m38.374737 48.703476l-0.640625 3.015625l-8.015625 0l0.109375 -0.515625l7.53125 -8.59375l-2.8125 0q-0.53125 0 -0.875 0.1875q-0.328125 0.1875 -0.703125 0.625q-0.359375 0.4375 -0.765625 1.171875l-0.90625 0l0.59375 -2.828125l7.890625 0l-0.109375 0.515625l-7.515625 8.59375l2.734375 0q0.546875 0 0.828125 -0.078125q0.296875 -0.09375 0.53125 -0.265625q0.25 -0.1875 0.515625 -0.578125q0.28125 -0.40625 0.703125 -1.25l0.90625 0z" fill-rule="nonzero"/><path fill="#000000" d="m45.77342 31.812853q-1.171875 5.468748 -0.171875 9.015623q1.015625 3.546875 4.359375 4.75l-0.625 1.203125q-4.328125 -1.203125 -5.921875 -5.1875q-1.59375 -3.96875 -0.390625 -9.624998q1.203125 -5.640625 4.5 -9.625q3.296875 -4.0 8.109375 -5.203125l0.171875 1.203125q-3.921875 1.203125 -6.421875 4.703125q-2.5 3.484375 -3.609375 8.765625zm14.578125 8.156248q-3.4375 0 -4.46875 -2.671875q-1.015625 -2.6875 0.140625 -8.187498q1.171875 -5.515625 3.53125 -8.40625q2.375 -2.890625 5.750004 -2.890625q3.421875 0 4.515625 2.640625q1.09375 2.640625 -0.078125 8.15625q-1.203125 5.687498 -3.5625 8.531248q-2.3437538 2.828125 -5.828129 2.828125zm-1.21875 -11.953123l7.843754 0q1.6875 -8.96875 -2.0 -8.96875q-3.8125038 0 -5.843754 8.96875zm7.531254 1.59375l-7.859379 0q-1.765625 9.109373 2.046875 9.109373q3.8125038 0 5.812504 -9.109373zm7.40625 -12.09375l0 0zm4.734375 14.296875q1.109375 -5.28125 0.09375 -8.765625q-1.0 -3.5 -4.40625 -4.703125l0.671875 -1.203125q4.3125 1.203125 5.90625 5.203125q1.59375 3.984375 0.390625 9.625q-1.203125 5.656248 -4.484375 9.624998q-3.28125 3.984375 -8.109375 5.1875l-0.125 -1.203125q3.875 -1.203125 6.375 -4.75q2.515625 -3.546875 3.6875 -9.015623z" fill-rule="nonzero"/><path fill="#000000" fill-opacity="0.0" d="m78.30932 85.55729l0 0c-17.628899 -0.6961212 -30.265713 -4.6704483 -29.167686 -9.173347c1.0980263 -4.502899 15.570061 -8.054611 33.40365 -8.197884c17.833588 -0.1432724 33.168167 3.1689682 35.39454 7.6451645c2.2263718 4.4761887 -9.3871 8.64534 -26.805664 9.623032l-7.4911118 -8.532448z" fill-rule="evenodd"/><path fill="#000000" fill-opacity="0.0" d="m78.30932 85.55729l0 0c-17.628899 -0.6961212 -30.265713 -4.6704483 -29.167686 -9.173347c1.0980263 -4.502899 15.570061 -8.054611 33.40365 -8.197884c17.833588 -0.1432724 33.168167 3.1689682 35.39454 7.6451645c2.2263718 4.4761887 -9.3871 8.64534 -26.805664 9.623032" fill-rule="evenodd"/><path stroke="#000000" stroke-width="2.0" stroke-linejoin="round" stroke-linecap="butt" d="m69.33491 84.879166l-0.35770416 -0.0410614c-0.96559143 -0.11430359 -1.9052811 -0.23939514 -2.8169327 -0.37460327c-3.646614 -0.5408478 -6.844612 -1.2436142 -9.457394 -2.0653381c-5.225559 -1.6434708 -8.110256 -3.7627716 -7.561241 -6.014221c1.0980225 -4.502899 15.570057 -8.054611 33.403645 -8.197884c17.833588 -0.1432724 33.168167 3.1689682 35.39454 7.6451645c2.2263794 4.4761887 -9.3871 8.645348 -26.805664 9.623032" fill-rule="evenodd"/><path fill="#000000" stroke="#000000" stroke-width="2.0" stroke-linecap="butt" d="m69.168274 87.084435l6.2255554 -1.7474442l-5.892288 -2.6630936z" fill-rule="evenodd"/><path fill="#000000" fill-opacity="0.0" d="m222.93959 222.28702l0 0c1.4992981 -9.240448 6.16568 -15.075943 11.095139 -13.874939c4.9294586 1.201004 8.717026 9.096222 9.005615 18.772263c0.28860474 9.676041 -3.0040283 18.375107 -7.8288116 20.683594c-4.8247833 2.3084717 -9.806595 -2.43161 -11.845123 -11.2703705l9.39212 -8.245865z" fill-rule="evenodd"/><path fill="#000000" fill-opacity="0.0" d="m222.93959 222.28702l0 0c1.4992981 -9.240448 6.16568 -15.075943 11.095139 -13.874939c4.9294586 1.201004 8.717026 9.096222 9.005615 18.772263c0.28860474 9.676041 -3.0040283 18.375107 -7.8288116 20.683594c-4.8247833 2.3084717 -9.806595 -2.43161 -11.845123 -11.2703705" fill-rule="evenodd"/><path stroke="#000000" stroke-width="2.0" stroke-linejoin="round" stroke-linecap="butt" d="m225.69888 213.72043l0.11039734 -0.200943c0.43327332 -0.7720032 0.8990326 -1.4695282 1.391571 -2.0854645c1.9701996 -2.4638214 4.369156 -3.6224365 6.8338776 -3.0219421c4.9294434 1.201004 8.7170105 9.096207 9.0056305 18.772263c0.28858948 9.676041 -3.0040436 18.375107 -7.828827 20.683578c-4.8247833 2.308487 -9.806595 -2.4315948 -11.845123 -11.270355" fill-rule="evenodd"/><path fill="#000000" stroke="#000000" stroke-width="2.0" stroke-linecap="butt" d="m223.59384 213.04239l0.24215698 6.461624l3.9679413 -5.105545z" fill-rule="evenodd"/><path fill="#000000" fill-opacity="0.0" d="m132.74803 26.900263l149.70079 0" fill-rule="evenodd"/><path stroke="#999999" stroke-width="2.0" stroke-linejoin="round" stroke-linecap="butt" d="m132.74803 26.900263l149.70079 0" fill-rule="evenodd"/><path fill="#000000" fill-opacity="0.0" d="m282.4567 26.900263l-50.29921 49.70079" fill-rule="evenodd"/><path stroke="#999999" stroke-width="2.0" stroke-linejoin="round" stroke-linecap="butt" d="m282.4567 26.900263l-50.29921 49.70079" fill-rule="evenodd"/><path fill="#000000" fill-opacity="0.0" d="m232.16011 76.603676l0.5984192 151.74802" fill-rule="evenodd"/><path stroke="#999999" stroke-width="2.0" stroke-linejoin="round" stroke-linecap="butt" d="m232.16011 76.603676l0.5984192 151.74802" fill-rule="evenodd"/><path fill="#000000" fill-opacity="0.0" d="m232.75853 228.3517l50.29921 -49.984253" fill-rule="evenodd"/><path stroke="#999999" stroke-width="2.0" stroke-linejoin="round" stroke-linecap="butt" d="m232.75853 228.3517l50.29921 -49.984253" fill-rule="evenodd"/><path fill="#000000" fill-opacity="0.0" d="m283.042 178.3622l-0.5984192 -150.29921" fill-rule="evenodd"/><path stroke="#999999" stroke-width="2.0" stroke-linejoin="round" stroke-linecap="butt" d="m283.042 178.3622l-0.5984192 -150.29921" fill-rule="evenodd"/><path fill="#000000" fill-opacity="0.0" d="m231.58005 77.7722l-147.93701 -0.8503952" fill-rule="evenodd"/><path stroke="#999999" stroke-width="2.0" stroke-linejoin="round" stroke-linecap="butt" d="m231.58005 77.7722l-147.93701 -0.8503952" fill-rule="evenodd"/><path fill="#000000" fill-opacity="0.0" d="m83.64304 76.92181l49.354332 -49.92126" fill-rule="evenodd"/><path stroke="#999999" stroke-width="2.0" stroke-linejoin="round" stroke-linecap="butt" d="m83.64304 76.92181l49.354332 -49.92126" fill-rule="evenodd"/></g></svg>